<svg xmlns="http://www.w3.org/2000/svg" width="186.402" height="164" viewBox="0 0 186.402 164">
  <path id="합치기_1" data-name="합치기 1" d="M7252,21247.162c-8.555,9.98-21.738,15.238-38.6,15.238-30.8,0-49.4-18-49.4-50.6v-1.4h23.4c.4,22.8,10.4,31.8,26.4,31.8,15.8,0,26.2-9.4,26.2-33.6V21103h23.2v3.355c7.564-3.777,16.923-5.953,28-5.953,33.8,0,51.4,19.8,51.4,43.6v2.4h-23.4v-2.4c0-13.8-9.8-23.4-28-23.4-18,0-27.8,9.6-27.8,23.4,0,13.2,7.8,20,24,23.4l20.2,4.2c26.2,5.6,40.8,20.4,40.8,44.8,0,26.8-20.2,46-54.2,46C7275.774,21262.4,7261.33,21256.693,7252,21247.162Zm11.4-33.961v3.6c0,15.2,11.6,25.6,30.8,25.6,19.4,0,30.8-10.4,30.8-25.6,0-12.8-7.8-21.8-24.8-25.4l-20.2-4.205a71.87,71.87,0,0,1-16.8-5.553v30.158c0,.471,0,.936-.012,1.4Z" transform="translate(-7162.998 -21099.4)" fill="none" stroke="#111" stroke-width="2"/>
</svg>
